<svg width="31" height="31" viewBox="0 0 31 31" fill="none" xmlns="http://www.w3.org/2000/svg">
<g clip-path="url(#clip0_1806_20396)">
<path d="M14.5758 1.76862C14.6312 1.47232 14.7884 1.2047 15.0203 1.01212C15.2522 0.819532 15.5441 0.714111 15.8455 0.714111C16.147 0.714111 16.4389 0.819532 16.6708 1.01212C16.9027 1.2047 17.0599 1.47232 17.1152 1.76862L18.4728 8.9477C18.5692 9.4581 18.8172 9.92759 19.1845 10.2949C19.5518 10.6622 20.0213 10.9102 20.5317 11.0066L27.7108 12.3642C28.0071 12.4195 28.2747 12.5767 28.4673 12.8086C28.6599 13.0405 28.7653 13.3324 28.7653 13.6339C28.7653 13.9353 28.6599 14.2272 28.4673 14.4591C28.2747 14.691 28.0071 14.8482 27.7108 14.9036L20.5317 16.2611C20.0213 16.3575 19.5518 16.6056 19.1845 16.9729C18.8172 17.3402 18.5692 17.8096 18.4728 18.32L17.1152 25.4991C17.0599 25.7954 16.9027 26.063 16.6708 26.2556C16.4389 26.4482 16.147 26.5536 15.8455 26.5536C15.5441 26.5536 15.2522 26.4482 15.0203 26.2556C14.7884 26.063 14.6312 25.7954 14.5758 25.4991L13.2183 18.32C13.1219 17.8096 12.8738 17.3402 12.5065 16.9729C12.1393 16.6056 11.6698 16.3575 11.1594 16.2611L3.98029 14.9036C3.68399 14.8482 3.41637 14.691 3.22379 14.4591C3.0312 14.2272 2.92578 13.9353 2.92578 13.6339C2.92578 13.3324 3.0312 13.0405 3.22379 12.8086C3.41637 12.5767 3.68399 12.4195 3.98029 12.3642L11.1594 11.0066C11.6698 10.9102 12.1393 10.6622 12.5065 10.2949C12.8738 9.92759 13.1219 9.4581 13.2183 8.9477L14.5758 1.76862Z" stroke="#00363D" stroke-width="2.33287" stroke-linecap="round" stroke-linejoin="round"/>
<path d="M25.832 2.58325V7.74992" stroke="#00363D" stroke-width="2.33287" stroke-linecap="round" stroke-linejoin="round"/>
<path d="M28.4167 5.16675H23.25" stroke="#00363D" stroke-width="2.33287" stroke-linecap="round" stroke-linejoin="round"/>
<path d="M5.16536 28.4167C6.5921 28.4167 7.7487 27.2601 7.7487 25.8333C7.7487 24.4066 6.5921 23.25 5.16536 23.25C3.73863 23.25 2.58203 24.4066 2.58203 25.8333C2.58203 27.2601 3.73863 28.4167 5.16536 28.4167Z" stroke="#00363D" stroke-width="2.33287" stroke-linecap="round" stroke-linejoin="round"/>
</g>
<defs>
<clipPath id="clip0_1806_20396">
<rect width="31" height="31" fill="white"/>
</clipPath>
</defs>
</svg>
