<svg width="83" height="83" viewBox="0 0 83 83" fill="none" xmlns="http://www.w3.org/2000/svg">
<path fill-rule="evenodd" clip-rule="evenodd" d="M28.531 20.8032V17.293C28.531 13.8534 29.8974 10.5548 32.3295 8.12268C34.7616 5.69057 38.0602 4.32422 41.4998 4.32422C44.9393 4.32422 48.238 5.69057 50.6701 8.12268C53.1022 10.5548 54.4685 13.8534 54.4685 17.293V20.8032C58.9194 20.9381 61.6446 21.4153 63.723 23.141C66.6038 25.5342 67.3646 29.5804 68.8829 37.6764L71.4766 51.5097C73.6104 62.8946 74.6756 68.587 71.5665 72.3358C68.454 76.0846 62.6613 76.0846 51.0794 76.0846H31.9202C20.3348 76.0846 14.5455 76.0846 11.433 72.3358C8.32052 68.587 9.39261 62.8946 11.5229 51.5097L14.1167 37.6764C15.6384 29.5839 16.3957 25.5342 19.2765 23.141C21.355 21.4153 24.0801 20.9381 28.531 20.8032ZM33.7185 17.293C33.7185 15.2293 34.5383 13.2501 35.9976 11.7908C37.4569 10.3315 39.4361 9.51172 41.4998 9.51172C43.5635 9.51172 45.5427 10.3315 47.0019 11.7908C48.4612 13.2501 49.281 15.2293 49.281 17.293V20.7513H33.7185V17.293ZM53.4967 37.7455C53.7631 37.9584 53.9849 38.2217 54.1494 38.5203C54.3139 38.8189 54.4179 39.1471 54.4555 39.4859C54.4931 39.8248 54.4635 40.1678 54.3684 40.4952C54.2733 40.8226 54.1146 41.1281 53.9014 41.3941L40.068 58.6858C39.8399 58.9704 39.5544 59.2038 39.23 59.3706C38.9056 59.5374 38.5497 59.6339 38.1854 59.6538C37.8212 59.6737 37.4569 59.6166 37.1162 59.4861C36.7756 59.3557 36.4663 59.1548 36.2085 58.8967L29.2919 51.98C28.8337 51.4884 28.5843 50.838 28.5961 50.1661C28.608 49.4941 28.8802 48.853 29.3554 48.3778C29.8306 47.9026 30.4718 47.6303 31.1437 47.6185C31.8157 47.6066 32.466 47.8561 32.9577 48.3142L37.827 53.1801L49.8482 38.1502C50.061 37.8838 50.3243 37.662 50.6229 37.4975C50.9216 37.333 51.2497 37.229 51.5886 37.1914C51.9274 37.1538 52.2704 37.1834 52.5978 37.2785C52.9252 37.3736 53.2307 37.5323 53.4967 37.7455Z" fill="#00363D"/>
</svg>
