<svg width="48" height="48" viewBox="0 0 48 48" fill="none" xmlns="http://www.w3.org/2000/svg">
<path fill-rule="evenodd" clip-rule="evenodd" d="M0 23.75C0 10.6329 10.6329 0 23.75 0C36.8671 0 47.5 10.6329 47.5 23.75C47.5 36.8671 36.8671 47.5 23.75 47.5C10.6329 47.5 0 36.8671 0 23.75ZM20.1875 14.25C20.1875 13.3052 20.5628 12.399 21.2309 11.7309C21.899 11.0628 22.8052 10.6875 23.75 10.6875H23.7738C24.7186 10.6875 25.6247 11.0628 26.2928 11.7309C26.9609 12.399 27.3363 13.3052 27.3363 14.25V14.2738C27.3363 15.2186 26.9609 16.1247 26.2928 16.7928C25.6247 17.4609 24.7186 17.8363 23.7738 17.8363H23.75C22.8052 17.8363 21.899 17.4609 21.2309 16.7928C20.5628 16.1247 20.1875 15.2186 20.1875 14.2738V14.25ZM23.75 21.375C24.3799 21.375 24.984 21.6252 25.4294 22.0706C25.8748 22.516 26.125 23.1201 26.125 23.75V33.25C26.125 33.8799 25.8748 34.484 25.4294 34.9294C24.984 35.3748 24.3799 35.625 23.75 35.625C23.1201 35.625 22.516 35.3748 22.0706 34.9294C21.6252 34.484 21.375 33.8799 21.375 33.25V23.75C21.375 23.1201 21.6252 22.516 22.0706 22.0706C22.516 21.6252 23.1201 21.375 23.75 21.375Z" fill="#D9D9D9"/>
</svg>
