<svg width="30" height="30" viewBox="0 0 30 30" fill="none" xmlns="http://www.w3.org/2000/svg">
<path d="M12.5 16.5625C12.2514 16.5625 12.0129 16.6613 11.8371 16.8371C11.6613 17.0129 11.5625 17.2514 11.5625 17.5C11.5625 17.7486 11.6613 17.9871 11.8371 18.1629C12.0129 18.3387 12.2514 18.4375 12.5 18.4375H17.5C17.7486 18.4375 17.9871 18.3387 18.1629 18.1629C18.3387 17.9871 18.4375 17.7486 18.4375 17.5C18.4375 17.2514 18.3387 17.0129 18.1629 16.8371C17.9871 16.6613 17.7486 16.5625 17.5 16.5625H12.5Z" fill="black"/>
<path fill-rule="evenodd" clip-rule="evenodd" d="M18.3313 2.91244C18.5536 2.8013 18.8109 2.78298 19.0467 2.8615C19.2826 2.94002 19.4775 3.10896 19.5888 3.33119L21.8551 7.86369C22.3892 7.88952 22.8767 7.93369 23.3176 7.99619C24.6376 8.18494 25.7301 8.59244 26.5063 9.55244C27.2826 10.5124 27.4526 11.6662 27.3613 12.9962C27.2738 14.2849 26.9238 15.9112 26.4888 17.9424L25.9251 20.5762C25.6313 21.9474 25.3926 23.0587 25.0926 23.9262C24.7801 24.8324 24.3676 25.5762 23.6651 26.1449C22.9626 26.7137 22.1476 26.9599 21.1976 27.0762C20.2851 27.1874 19.1476 27.1874 17.7476 27.1874H12.2526C10.8501 27.1874 9.71381 27.1874 8.80131 27.0762C7.85131 26.9599 7.03631 26.7137 6.33381 26.1449C5.63131 25.5762 5.21881 24.8324 4.90631 23.9274C4.60631 23.0587 4.36881 21.9474 4.07381 20.5774L3.51006 17.9437C3.07506 15.9112 2.72631 14.2849 2.63756 12.9962C2.54631 11.6662 2.71631 10.5137 3.49256 9.55244C4.26756 8.59244 5.36006 8.18494 6.68006 7.99619C7.12173 7.93452 7.60923 7.89036 8.14256 7.86369L10.4126 3.33119C10.5248 3.11073 10.7196 2.94355 10.9545 2.8661C11.1895 2.78864 11.4455 2.80719 11.6668 2.91769C11.8881 3.02818 12.0568 3.22168 12.1361 3.45601C12.2154 3.69034 12.1988 3.94651 12.0901 4.16869L10.2651 7.81494C10.7201 7.81244 11.1988 7.81161 11.7013 7.81244H18.2988C18.8013 7.81244 19.2801 7.81327 19.7351 7.81494L17.9113 4.16869C17.8002 3.94639 17.7818 3.68906 17.8604 3.45325C17.9389 3.21745 18.1078 3.02248 18.3301 2.91119M7.16506 9.82244L6.66131 10.8299C6.60519 10.9402 6.57144 11.0605 6.56202 11.1839C6.55261 11.3072 6.5677 11.4312 6.60644 11.5487C6.64518 11.6663 6.7068 11.7749 6.78774 11.8685C6.86868 11.9621 6.96734 12.0387 7.07804 12.094C7.18874 12.1493 7.30928 12.1821 7.43272 12.1905C7.55616 12.199 7.68005 12.1829 7.79725 12.1433C7.91446 12.1036 8.02265 12.0412 8.1156 11.9595C8.20854 11.8778 8.28441 11.7786 8.33881 11.6674L9.32256 9.69994C10.0351 9.68744 10.8476 9.68619 11.7776 9.68619H18.2226C19.1526 9.68619 19.9651 9.68619 20.6776 9.69869L21.6613 11.6674C21.7735 11.8879 21.9683 12.0551 22.2033 12.1325C22.4382 12.21 22.6942 12.1914 22.9156 12.0809C23.1369 11.9704 23.3056 11.7769 23.3849 11.5426C23.4641 11.3083 23.4476 11.0521 23.3388 10.8299L22.8351 9.82244L23.0526 9.85119C24.1576 10.0099 24.6988 10.2987 25.0488 10.7299C25.3926 11.1549 25.5613 11.7337 25.4938 12.8112H4.50631C4.43881 11.7337 4.60756 11.1549 4.95131 10.7299C5.30131 10.2987 5.84256 10.0099 6.94756 9.85119L7.16506 9.82244ZM5.36006 17.6249C5.14516 16.6488 4.94472 15.6695 4.75881 14.6874H25.2413C25.0546 15.6695 24.8538 16.6487 24.6388 17.6249L24.1038 20.1249C23.7938 21.5687 23.5788 22.5674 23.3201 23.3149C23.0701 24.0399 22.8151 24.4224 22.4863 24.6874C22.1588 24.9524 21.7301 25.1224 20.9713 25.2149C20.1851 25.3112 19.1626 25.3124 17.6863 25.3124H12.3126C10.8376 25.3124 9.81506 25.3112 9.02881 25.2149C8.26881 25.1224 7.84131 24.9524 7.51381 24.6874C7.18506 24.4224 6.92881 24.0387 6.68006 23.3149C6.42131 22.5674 6.20506 21.5687 5.89631 20.1249L5.36006 17.6249Z" fill="black"/>
</svg>
