<svg width="12" height="20" viewBox="0 0 12 20" fill="none" xmlns="http://www.w3.org/2000/svg">
<path d="M11.4214 9.93994C11.4214 9.55811 11.2754 9.23242 10.9722 8.94043L2.2124 0.371582C1.97656 0.124512 1.66211 0.000976562 1.30273 0.000976562C0.572754 0.000976562 0 0.5625 0 1.30371C0 1.66309 0.145996 1.98877 0.393066 2.23584L8.28809 9.93994L0.393066 17.644C0.145996 17.9023 0 18.228 0 18.5874C0 19.3174 0.572754 19.8789 1.30273 19.8789C1.66211 19.8789 1.97656 19.7554 2.2124 19.5083L10.9722 10.9395C11.2754 10.6475 11.4102 10.3218 11.4214 9.93994Z" fill="#3A3A3C"/>
</svg>
