<svg width="52" height="52" viewBox="0 0 52 52" fill="none" xmlns="http://www.w3.org/2000/svg">
<path d="M32.0654 17.3337L34.6654 19.9337L19.932 34.667L17.332 32.067L32.0654 17.3337ZM8.66536 8.66699H43.332C45.737 8.66699 47.6654 10.5953 47.6654 13.0003V21.667C46.5161 21.667 45.4139 22.1235 44.6012 22.9362C43.7886 23.7489 43.332 24.8511 43.332 26.0003C43.332 27.1496 43.7886 28.2518 44.6012 29.0645C45.4139 29.8771 46.5161 30.3337 47.6654 30.3337V39.0003C47.6654 41.4053 45.737 43.3337 43.332 43.3337H8.66536C7.51609 43.3337 6.41389 42.8771 5.60123 42.0645C4.78858 41.2518 4.33203 40.1496 4.33203 39.0003V30.3337C6.73703 30.3337 8.66536 28.4053 8.66536 26.0003C8.66536 24.8511 8.20882 23.7489 7.39616 22.9362C6.5835 22.1235 5.4813 21.667 4.33203 21.667V13.0003C4.33203 11.8511 4.78858 10.7489 5.60123 9.9362C6.41389 9.12354 7.51609 8.66699 8.66536 8.66699ZM8.66536 13.0003V18.5037C9.982 19.2629 11.0755 20.3554 11.8357 21.6714C12.596 22.9874 12.9963 24.4805 12.9963 26.0003C12.9963 27.5202 12.596 29.0132 11.8357 30.3292C11.0755 31.6452 9.982 32.7378 8.66536 33.497V39.0003H43.332V33.497C42.0154 32.7378 40.9219 31.6452 40.1616 30.3292C39.4014 29.0132 39.0011 27.5202 39.0011 26.0003C39.0011 24.4805 39.4014 22.9874 40.1616 21.6714C40.9219 20.3554 42.0154 19.2629 43.332 18.5037V13.0003H8.66536ZM20.582 17.3337C22.3804 17.3337 23.832 18.7853 23.832 20.5837C23.832 22.382 22.3804 23.8337 20.582 23.8337C18.7837 23.8337 17.332 22.382 17.332 20.5837C17.332 18.7853 18.7837 17.3337 20.582 17.3337ZM31.4154 28.167C33.2137 28.167 34.6654 29.6187 34.6654 31.417C34.6654 33.2153 33.2137 34.667 31.4154 34.667C29.617 34.667 28.1654 33.2153 28.1654 31.417C28.1654 29.6187 29.617 28.167 31.4154 28.167Z" fill="#00363D"/>
</svg>
