<svg width="47" height="47" viewBox="0 0 47 47" fill="none" xmlns="http://www.w3.org/2000/svg">
<path fill-rule="evenodd" clip-rule="evenodd" d="M14.5264 13.8815C12.8285 15.5548 11.5308 17.5903 10.7304 19.8358C9.92996 22.0813 9.64746 24.4786 9.90403 26.8487C9.97818 27.5513 9.77016 28.2547 9.32574 28.8039C8.88132 29.3532 8.2369 29.7035 7.53425 29.7776C6.8316 29.8518 6.12827 29.6437 5.57898 29.1993C5.0297 28.7549 4.67946 28.1105 4.60531 27.4078C4.26523 24.242 4.64464 21.0401 5.71522 18.0414C6.78579 15.0427 8.51988 12.3245 10.788 10.0898C19.1382 1.85683 32.5953 1.99529 40.8469 10.3614C49.0986 18.7275 49.0506 32.19 40.7032 40.423C36.8391 44.242 31.6503 46.4225 26.2182 46.5098C24.1653 46.5468 22.1178 46.2867 20.1393 45.7377C19.7945 45.6517 19.4704 45.4975 19.1862 45.2843C18.9019 45.0711 18.6631 44.8031 18.484 44.4962C18.3049 44.1893 18.189 43.8496 18.1433 43.4972C18.0975 43.1448 18.1227 42.7868 18.2174 42.4443C18.3122 42.1018 18.4745 41.7817 18.6949 41.503C18.9152 41.2242 19.1892 40.9923 19.5005 40.8211C19.8119 40.6498 20.1544 40.5426 20.5079 40.5058C20.8613 40.469 21.2186 40.5033 21.5585 40.6067C23.044 41.0185 24.5812 41.2131 26.1224 41.1845C30.1876 41.1215 34.0713 39.4902 36.9621 36.6313C43.2007 30.4806 43.2593 20.3917 37.0553 14.1025C30.8513 7.81323 20.7624 7.73069 14.5264 13.8815Z" fill="#00363D"/>
<path fill-rule="evenodd" clip-rule="evenodd" d="M9.2318 29.5652C8.99929 29.8264 8.7176 30.0393 8.40282 30.1916C8.08803 30.344 7.74631 30.4329 7.39718 30.4531C7.04805 30.4734 6.69834 30.4247 6.36804 30.3098C6.03773 30.1949 5.73329 30.0161 5.47211 29.7835L0.892311 25.7096C0.364791 25.24 0.0454298 24.5801 0.00448328 23.875C-0.0364632 23.1699 0.204359 22.4774 0.673972 21.9499C1.14358 21.4224 1.80352 21.103 2.5086 21.0621C3.21368 21.0212 3.90614 21.262 4.43366 21.7316L9.01346 25.8055C9.2747 26.038 9.48757 26.3197 9.63993 26.6345C9.79229 26.9492 9.88114 27.291 9.90142 27.6401C9.92169 27.9892 9.87299 28.3389 9.7581 28.6692C9.6432 28.9995 9.46437 29.304 9.2318 29.5652Z" fill="#00363D"/>
<path fill-rule="evenodd" clip-rule="evenodd" d="M5.11457 29.3114C5.32437 29.5911 5.58721 29.8268 5.88809 30.0049C6.18897 30.1831 6.52199 30.3002 6.86815 30.3497C7.2143 30.3991 7.5668 30.3799 7.90553 30.2931C8.24426 30.2063 8.56257 30.0537 8.84231 29.8439L14.1677 25.8499C14.7326 25.4262 15.1061 24.7954 15.206 24.0963C15.3058 23.3972 15.1239 22.6871 14.7002 22.1221C14.2765 21.5572 13.6457 21.1837 12.9466 21.0838C12.2475 20.984 11.5374 21.1659 10.9724 21.5896L5.6471 25.5836C5.36737 25.7934 5.13169 26.0563 4.95354 26.3571C4.77539 26.658 4.65824 26.991 4.60879 27.3372C4.55934 27.6833 4.57856 28.0359 4.66534 28.3746C4.75212 28.7133 4.90477 29.0316 5.11457 29.3114ZM25.2976 14.4004C26.0038 14.4004 26.6811 14.6809 27.1804 15.1803C27.6798 15.6796 27.9603 16.3569 27.9603 17.0631V26.3824C27.9603 27.0886 27.6798 27.7659 27.1804 28.2652C26.6811 28.7646 26.0038 29.0451 25.2976 29.0451C24.5914 29.0451 23.9142 28.7646 23.4148 28.2652C22.9155 27.7659 22.635 27.0886 22.635 26.3824V17.0631C22.635 16.3569 22.9155 15.6796 23.4148 15.1803C23.9142 14.6809 24.5914 14.4004 25.2976 14.4004Z" fill="#00363D"/>
<path fill-rule="evenodd" clip-rule="evenodd" d="M35.9462 26.3824C35.9462 27.0886 35.6656 27.7658 35.1663 28.2652C34.6669 28.7645 33.9897 29.0451 33.2835 29.0451H25.2955C24.5893 29.0451 23.912 28.7645 23.4127 28.2652C22.9133 27.7658 22.6328 27.0886 22.6328 26.3824C22.6328 25.6762 22.9133 24.999 23.4127 24.4996C23.912 24.0003 24.5893 23.7197 25.2955 23.7197H33.2835C33.9897 23.7197 34.6669 24.0003 35.1663 24.4996C35.6656 24.999 35.9462 25.6762 35.9462 26.3824Z" fill="#00363D"/>
</svg>
