<svg width="20" height="20" viewBox="0 0 20 20" fill="none" xmlns="http://www.w3.org/2000/svg">
<path d="M6.11099 13.8891C6.01726 13.7953 5.9646 13.6681 5.9646 13.5356C5.9646 13.403 6.01726 13.2758 6.11099 13.1821L9.29299 10.0001L6.11099 6.81806C6.01991 6.72376 5.96952 6.59746 5.97066 6.46636C5.9718 6.33526 6.02438 6.20985 6.11708 6.11715C6.20979 6.02445 6.33519 5.97186 6.46629 5.97072C6.59739 5.96958 6.72369 6.01998 6.81799 6.11106L9.99999 9.29306L13.182 6.11106C13.2763 6.01998 13.4026 5.96958 13.5337 5.97072C13.6648 5.97186 13.7902 6.02445 13.8829 6.11715C13.9756 6.20985 14.0282 6.33526 14.0293 6.46636C14.0305 6.59746 13.9801 6.72376 13.889 6.81806L10.707 10.0001L13.889 13.1821C13.9801 13.2764 14.0305 13.4027 14.0293 13.5338C14.0282 13.6649 13.9756 13.7903 13.8829 13.883C13.7902 13.9757 13.6648 14.0283 13.5337 14.0294C13.4026 14.0305 13.2763 13.9801 13.182 13.8891L9.99999 10.7071L6.81799 13.8891C6.72423 13.9828 6.59708 14.0355 6.46449 14.0355C6.33191 14.0355 6.20476 13.9828 6.11099 13.8891Z" fill="black" fill-opacity="0.62"/>
<path fill-rule="evenodd" clip-rule="evenodd" d="M10 20C15.523 20 20 15.523 20 10C20 4.477 15.523 0 10 0C4.477 0 0 4.477 0 10C0 15.523 4.477 20 10 20ZM10 19C14.9705 19 19 14.9705 19 10C19 5.0295 14.9705 1 10 1C5.0295 1 1 5.0295 1 10C1 14.9705 5.0295 19 10 19Z" fill="black" fill-opacity="0.62"/>
</svg>
