<svg width="52" height="52" viewBox="0 0 52 52" fill="none" xmlns="http://www.w3.org/2000/svg">
<path d="M5.41797 16.2503V29.2503C5.41797 37.4208 5.41797 41.5072 7.95297 44.0443C10.4945 46.5837 14.5808 46.5837 22.7513 46.5837H30.3346M5.41797 16.2503L8.38197 11.5162C10.2475 8.53483 11.1835 7.04416 12.6525 6.22949C14.1215 5.41699 15.8808 5.41699 19.3995 5.41699H32.7245C36.3211 5.41699 38.1173 5.41699 39.608 6.25983C41.0986 7.10483 42.0216 8.64533 43.872 11.7285L46.5846 16.2503M5.41797 16.2503H46.5846M46.5846 30.3337V16.2503M26.0013 16.2503V5.41699M34.668 31.417C34.668 31.417 29.2513 35.4058 29.2513 36.8337C29.2513 38.2615 34.668 42.2503 34.668 42.2503M30.3346 36.8337H41.7096C43.0026 36.8337 44.2425 37.3473 45.1568 38.2615C46.071 39.1758 46.5846 40.4157 46.5846 41.7087C46.5846 43.0016 46.071 44.2416 45.1568 45.1558C44.2425 46.07 43.0026 46.5837 41.7096 46.5837H40.0846M21.668 22.7503H30.3346" stroke="#00363D" stroke-width="4" stroke-linecap="round" stroke-linejoin="round"/>
</svg>
