<svg width="47" height="47" viewBox="0 0 47 47" fill="none" xmlns="http://www.w3.org/2000/svg">
<path d="M29.1667 30.3333C30.45 30.3333 31.549 29.8768 32.4637 28.9637C33.3783 28.0506 33.8349 26.9516 33.8333 25.6667C33.8318 24.3818 33.3752 23.2836 32.4637 22.372C31.5521 21.4604 30.4531 21.0031 29.1667 21C28.5833 21 28.0296 21.1073 27.5053 21.322C26.9811 21.5367 26.5043 21.8182 26.075 22.1667L19.8333 19.0167V18.3167L26.075 15.1667C26.5028 15.5167 26.9796 15.799 27.5053 16.0137C28.0311 16.2283 28.5849 16.3349 29.1667 16.3333C30.45 16.3333 31.549 15.8768 32.4637 14.9637C33.3783 14.0506 33.8349 12.9516 33.8333 11.6667C33.8318 10.3818 33.3752 9.28356 32.4637 8.372C31.5521 7.46044 30.4531 7.00311 29.1667 7C27.8802 6.99689 26.782 7.45422 25.872 8.372C24.962 9.28978 24.5047 10.388 24.5 11.6667V12.0167L18.2583 15.1667C17.8306 14.8167 17.3546 14.5343 16.8303 14.3197C16.3061 14.105 15.7516 13.9984 15.1667 14C13.8833 14 12.7851 14.4573 11.872 15.372C10.9589 16.2867 10.5016 17.3849 10.5 18.6667C10.4984 19.9484 10.9558 21.0474 11.872 21.9637C12.7882 22.8799 13.8864 23.3364 15.1667 23.3333C15.75 23.3333 16.3046 23.2268 16.8303 23.0137C17.3561 22.8006 17.8321 22.5182 18.2583 22.1667L24.5 25.3167V25.6667C24.5 26.95 24.9573 28.049 25.872 28.9637C26.7867 29.8783 27.8849 30.3349 29.1667 30.3333ZM0 46.6667V4.66667C0 3.38333 0.457333 2.28511 1.372 1.372C2.28667 0.458889 3.38489 0.00155556 4.66667 0H42C43.2833 0 44.3823 0.457334 45.297 1.372C46.2117 2.28667 46.6682 3.38489 46.6667 4.66667V32.6667C46.6667 33.95 46.2101 35.049 45.297 35.9637C44.3839 36.8783 43.2849 37.3349 42 37.3333H9.33333L0 46.6667Z" fill="#00363D"/>
</svg>
