<svg width="36" height="36" viewBox="0 0 36 36" fill="none" xmlns="http://www.w3.org/2000/svg">
<path d="M10.0013 11.4558C9.84098 13.1658 9.72848 16.1921 10.7382 17.4802C10.7382 17.4802 10.2629 14.1558 14.5238 9.9849C16.2394 8.30583 16.636 6.02208 16.0369 4.30927C15.6966 3.33896 15.075 2.5374 14.535 1.97771C14.22 1.64865 14.4619 1.10583 14.9204 1.12552C17.6935 1.24927 22.1879 2.0199 24.0975 6.8124C24.9357 8.91615 24.9975 11.0902 24.5982 13.3008C24.345 14.7127 23.445 17.8515 25.4982 18.2368C26.9635 18.5124 27.6722 17.348 27.99 16.5099C28.1222 16.1611 28.5807 16.074 28.8282 16.3524C31.3032 19.1677 31.5141 22.4836 31.0022 25.3383C30.0122 30.8565 24.4238 34.8727 18.8719 34.8727C11.9363 34.8727 6.41536 30.9043 4.98379 23.7211C4.40723 20.8215 4.69973 15.084 9.17161 11.034C9.50348 10.7302 10.0463 11.0002 10.0013 11.4558Z" fill="url(#paint0_radial_1092_29349)"/>
<path d="M21.4061 21.7752C18.8496 18.4845 19.9943 14.7299 20.6214 13.2336C20.7058 13.0367 20.4808 12.8511 20.3036 12.972C19.2039 13.7202 16.9511 15.4808 15.9021 17.9586C14.4818 21.3083 14.583 22.948 15.4239 24.9505C15.9302 26.157 15.3424 26.413 15.0471 26.458C14.7602 26.503 14.4958 26.3117 14.2849 26.112C13.6782 25.5294 13.2458 24.7892 13.0361 23.9745C12.9911 23.8002 12.7633 23.7524 12.6593 23.8958C11.8718 24.9842 11.4639 26.7308 11.4443 27.9655C11.3824 31.782 14.5352 34.8758 18.3489 34.8758C23.1555 34.8758 26.6571 29.5602 23.8952 25.1164C23.0936 23.8227 22.3399 22.9761 21.4061 21.7752Z" fill="url(#paint1_radial_1092_29349)"/>
<defs>
<radialGradient id="paint0_radial_1092_29349" cx="0" cy="0" r="1" gradientTransform="matrix(-19.8526 -0.0861602 -0.141549 32.5741 17.4982 34.9602)" gradientUnits="userSpaceOnUse">
<stop offset="0.314" stop-color="#FF9800"/>
<stop offset="0.662" stop-color="#FF6D00"/>
<stop offset="0.972" stop-color="#F44336"/>
</radialGradient>
<radialGradient id="paint1_radial_1092_29349" cx="0" cy="0" r="1" gradientTransform="matrix(-0.209809 20.771 15.6318 0.157876 18.6133 15.2047)" gradientUnits="userSpaceOnUse">
<stop offset="0.214" stop-color="#FFF176"/>
<stop offset="0.328" stop-color="#FFF27D"/>
<stop offset="0.487" stop-color="#FFF48F"/>
<stop offset="0.672" stop-color="#FFF7AD"/>
<stop offset="0.793" stop-color="#FFF9C4"/>
<stop offset="0.822" stop-color="#FFF8BD" stop-opacity="0.804"/>
<stop offset="0.863" stop-color="#FFF6AB" stop-opacity="0.529"/>
<stop offset="0.91" stop-color="#FFF38D" stop-opacity="0.209"/>
<stop offset="0.941" stop-color="#FFF176" stop-opacity="0"/>
</radialGradient>
</defs>
</svg>
