<svg width="20" height="20" viewBox="0 0 20 20" fill="none" xmlns="http://www.w3.org/2000/svg">
<path d="M15.625 7.75C17.489 7.75 19 6.23896 19 4.375C19 2.51104 17.489 1 15.625 1C13.761 1 12.25 2.51104 12.25 4.375C12.25 6.23896 13.761 7.75 15.625 7.75Z" stroke="black" stroke-width="2" stroke-linecap="round" stroke-linejoin="round"/>
<path d="M4.375 19C6.23896 19 7.75 17.489 7.75 15.625C7.75 13.761 6.23896 12.25 4.375 12.25C2.51104 12.25 1 13.761 1 15.625C1 17.489 2.51104 19 4.375 19Z" stroke="black" stroke-width="2" stroke-linecap="round" stroke-linejoin="round"/>
<path d="M12.25 12.25H19V17.875C19 18.1734 18.8815 18.4595 18.6705 18.6705C18.4595 18.8815 18.1734 19 17.875 19H13.375C13.0766 19 12.7905 18.8815 12.5795 18.6705C12.3685 18.4595 12.25 18.1734 12.25 17.875V12.25ZM1 1H7.75V6.625C7.75 6.92337 7.63147 7.20952 7.42049 7.42049C7.20952 7.63147 6.92337 7.75 6.625 7.75H2.125C1.82663 7.75 1.54048 7.63147 1.32951 7.42049C1.11853 7.20952 1 6.92337 1 6.625V1Z" stroke="black" stroke-width="2" stroke-linecap="round" stroke-linejoin="round"/>
</svg>
