<svg width="31" height="31" viewBox="0 0 31 31" fill="none" xmlns="http://www.w3.org/2000/svg">
<path d="M15.5002 5.23145L27.7194 14.7355C27.8238 14.8121 27.9118 14.9088 27.9782 15.02C28.0446 15.1312 28.088 15.2545 28.1059 15.3828C28.1238 15.511 28.1159 15.6415 28.0824 15.7666C28.049 15.8918 27.9909 16.0089 27.9114 16.1111C27.832 16.2134 27.7329 16.2987 27.6199 16.3619C27.5069 16.4252 27.3824 16.4652 27.2537 16.4795C27.125 16.4939 26.9947 16.4823 26.8706 16.4454C26.7465 16.4085 26.631 16.3471 26.531 16.2649L25.5106 15.4718V25.8335C25.5106 26.0905 25.4085 26.3369 25.2269 26.5185C25.0452 26.7002 24.7988 26.8023 24.5419 26.8023C24.2849 26.8023 24.0385 26.7002 23.8568 26.5185C23.6752 26.3369 23.5731 26.0905 23.5731 25.8335V13.9644L15.5002 7.6869L7.42727 13.9644V25.8335C7.42727 26.0905 7.32521 26.3369 7.14353 26.5185C6.96186 26.7002 6.71545 26.8023 6.45852 26.8023C6.2016 26.8023 5.95519 26.7002 5.77351 26.5185C5.59184 26.3369 5.48977 26.0905 5.48977 25.8335V15.4718L4.46936 16.2649C4.26593 16.414 4.01234 16.478 3.76251 16.4431C3.51267 16.4082 3.2863 16.2772 3.13152 16.078C2.97675 15.8789 2.90577 15.6271 2.93369 15.3764C2.96161 15.1257 3.08622 14.8958 3.28102 14.7355L5.48977 13.0176V9.6877C5.48977 8.79645 6.21311 8.07311 7.10436 8.07311H8.39602C8.79309 8.07319 9.17621 8.21958 9.47216 8.48431C9.7681 8.74904 9.95612 9.11355 10.0003 9.50815L15.5002 5.23145ZM8.07311 10.8825V10.0106H7.42727V11.3669L8.07311 10.8825Z" fill="black"/>
<path d="M13.5622 19.0522C13.4765 19.0522 13.3944 19.0863 13.3338 19.1468C13.2733 19.2074 13.2393 19.2895 13.2393 19.3752V25.8335C13.2393 26.0904 13.1372 26.3368 12.9555 26.5185C12.7738 26.7002 12.5274 26.8022 12.2705 26.8022C12.0136 26.8022 11.7672 26.7002 11.5855 26.5185C11.4038 26.3368 11.3018 26.0904 11.3018 25.8335V19.3752C11.3018 18.1274 12.3144 17.1147 13.5622 17.1147H17.4372C18.6849 17.1147 19.6976 18.1274 19.6976 19.3752V25.8335C19.6976 26.0904 19.5955 26.3368 19.4138 26.5185C19.2322 26.7002 18.9858 26.8022 18.7288 26.8022C18.4719 26.8022 18.2255 26.7002 18.0438 26.5185C17.8622 26.3368 17.7601 26.0904 17.7601 25.8335V19.3752C17.7601 19.2895 17.7261 19.2074 17.6655 19.1468C17.605 19.0863 17.5228 19.0522 17.4372 19.0522H13.5622Z" fill="black"/>
</svg>
