<svg width="41" height="41" viewBox="0 0 41 41" fill="none" xmlns="http://www.w3.org/2000/svg">
<path d="M2 38.0132V35.0011C2 32.6042 2.95219 30.3054 4.64709 28.6105C6.342 26.9156 8.64078 25.9634 11.0377 25.9634C13.4347 25.9634 15.7335 26.9156 17.4284 28.6105C19.1233 30.3054 20.0755 32.6042 20.0755 35.0011V38.0132M21.2344 19.926C22.9437 21.5986 25.1749 22.6346 27.5557 22.8611C29.9364 23.0877 32.3229 22.4911 34.317 21.1709C36.3111 19.8506 37.7923 17.8866 38.5134 15.6064C39.2345 13.3261 39.1521 10.8676 38.2797 8.64085C37.4074 6.41408 35.7979 4.55374 33.7198 3.37013C31.6417 2.18651 29.2206 1.7512 26.8604 2.1368C24.5001 2.5224 22.3435 3.70559 20.7501 5.48902C19.1567 7.27245 18.223 9.54828 18.1047 11.9369" stroke="#00363D" stroke-width="4" stroke-linecap="round" stroke-linejoin="round"/>
</svg>
