<svg width="43" height="43" viewBox="0 0 43 43" fill="none" xmlns="http://www.w3.org/2000/svg">
<path d="M40.4724 17.7061V40.4708H2.53125V17.7061" stroke="#00363D" stroke-width="2" stroke-linecap="round" stroke-linejoin="round"/>
<path d="M10.1174 10.1175L21.4998 2.5293L32.8821 10.1175M21.4998 32.8822L5.05859 21.9299V10.1175H37.9409V21.9299L21.4998 32.8822Z" stroke="#00363D" stroke-width="2" stroke-linejoin="round"/>
<path d="M13.9102 16.4414H29.0866M15.1749 21.5002H27.8219" stroke="#00363D" stroke-linecap="round"/>
<path fill-rule="evenodd" clip-rule="evenodd" d="M2.52941 15.1768C3.20025 15.1768 3.84362 15.4432 4.31798 15.9176C4.79233 16.392 5.05882 17.0353 5.05882 17.7062V37.9415H37.9412V17.7062C37.9412 17.0353 38.2077 16.392 38.682 15.9176C39.1564 15.4432 39.7997 15.1768 40.4706 15.1768C41.1414 15.1768 41.7848 15.4432 42.2592 15.9176C42.7335 16.392 43 17.0353 43 17.7062V40.4709C43 41.1417 42.7335 41.7851 42.2592 42.2594C41.7848 42.7338 41.1414 43.0003 40.4706 43.0003H2.52941C1.85857 43.0003 1.2152 42.7338 0.740847 42.2594C0.266491 41.7851 0 41.1417 0 40.4709V17.7062C0 17.0353 0.266491 16.392 0.740847 15.9176C1.2152 15.4432 1.85857 15.1768 2.52941 15.1768Z" fill="#00363D"/>
<path fill-rule="evenodd" clip-rule="evenodd" d="M2.53125 10.1183C2.53125 9.44744 2.79774 8.80407 3.2721 8.32972C3.74645 7.85536 4.38982 7.58887 5.06066 7.58887H37.943C38.6139 7.58887 39.2572 7.85536 39.7316 8.32972C40.2059 8.80407 40.4724 9.44744 40.4724 10.1183V21.9306C40.4722 22.3472 40.3691 22.7572 40.1723 23.1244C39.9755 23.4915 39.6911 23.8043 39.3443 24.0351L22.9031 34.9875C22.488 35.2637 22.0005 35.4111 21.5018 35.4111C21.0032 35.4111 20.5157 35.2637 20.1005 34.9875L3.65937 24.0351C3.31258 23.8043 3.02816 23.4915 2.83135 23.1244C2.63455 22.7572 2.53147 22.3472 2.53125 21.9306V10.1183ZM7.59007 12.6477V20.5774L21.5018 29.8426L35.4136 20.5774V12.6477H7.59007Z" fill="#00363D"/>
<path fill-rule="evenodd" clip-rule="evenodd" d="M20.0972 0.42532C20.5129 0.147997 21.0013 0 21.501 0C22.0007 0 22.4892 0.147997 22.9048 0.42532L34.2872 8.01356L31.4795 12.2225L21.501 5.57014L11.5225 12.2225L8.71484 8.01356L20.0972 0.42532ZM12.6481 16.4416C12.6481 16.1061 12.7813 15.7845 13.0185 15.5473C13.2557 15.3101 13.5774 15.1768 13.9128 15.1768H29.0893C29.4247 15.1768 29.7464 15.3101 29.9835 15.5473C30.2207 15.7845 30.354 16.1061 30.354 16.4416C30.354 16.777 30.2207 17.0987 29.9835 17.3358C29.7464 17.573 29.4247 17.7063 29.0893 17.7063H13.9128C13.5774 17.7063 13.2557 17.573 13.0185 17.3358C12.7813 17.0987 12.6481 16.777 12.6481 16.4416ZM13.9128 21.5004C13.9128 21.165 14.046 20.8433 14.2832 20.6061C14.5204 20.3689 14.8421 20.2357 15.1775 20.2357H27.8245C28.16 20.2357 28.4817 20.3689 28.7188 20.6061C28.956 20.8433 29.0893 21.165 29.0893 21.5004C29.0893 21.8358 28.956 22.1575 28.7188 22.3947C28.4817 22.6318 28.16 22.7651 27.8245 22.7651H15.1775C14.8421 22.7651 14.5204 22.6318 14.2832 22.3947C14.046 22.1575 13.9128 21.8358 13.9128 21.5004Z" fill="#00363D"/>
</svg>
