<svg width="44" height="44" viewBox="0 0 44 44" fill="none" xmlns="http://www.w3.org/2000/svg">
<path d="M28.2485 6.90854L25.7158 4.31254L27.682 2.39304L29.3925 4.14479L31.84 4.11454C32.8995 4.102 33.9507 4.30142 34.932 4.70108C35.9132 5.10074 36.8046 5.69256 37.5538 6.44175C38.303 7.19094 38.8948 8.08236 39.2945 9.06361C39.6942 10.0449 39.8936 11.0961 39.881 12.1555L39.8535 14.603L41.6025 16.3135C42.3601 17.0538 42.962 17.9379 43.3729 18.9141C43.7839 19.8902 43.9956 20.9387 43.9956 21.9978C43.9956 23.0569 43.7839 24.1054 43.3729 25.0815C42.962 26.0577 42.3601 26.9418 41.6025 27.682L39.8508 29.3925L39.881 31.84C39.8936 32.8995 39.6942 33.9507 39.2945 34.932C38.8948 35.9132 38.303 36.8046 37.5538 37.5538C36.8046 38.303 35.9132 38.8948 34.932 39.2945C33.9507 39.6942 32.8995 39.8936 31.84 39.881L29.3925 39.8535L27.682 41.6025C26.9418 42.3601 26.0577 42.962 25.0815 43.3729C24.1054 43.7839 23.0569 43.9956 21.9978 43.9956C20.9387 43.9956 19.8902 43.7839 18.9141 43.3729C17.9379 42.962 17.0538 42.3601 16.3135 41.6025L14.603 39.8508L12.1555 39.881C11.0961 39.8936 10.0449 39.6942 9.06361 39.2945C8.08236 38.8948 7.19094 38.303 6.44175 37.5538C5.69256 36.8046 5.10074 35.9132 4.70108 34.932C4.30142 33.9507 4.102 32.8995 4.11454 31.84L4.14204 29.3925L2.39304 27.682C1.63552 26.9418 1.0336 26.0577 0.62265 25.0815C0.211697 24.1054 0 23.0569 0 21.9978C0 20.9387 0.211697 19.8902 0.62265 18.9141C1.0336 17.9379 1.63552 17.0538 2.39304 16.3135L4.14479 14.603L4.11454 12.1555C4.102 11.0961 4.30142 10.0449 4.70108 9.06361C5.10074 8.08236 5.69256 7.19094 6.44175 6.44175C7.19094 5.69256 8.08236 5.10074 9.06361 4.70108C10.0449 4.30142 11.0961 4.102 12.1555 4.11454L14.603 4.14204L16.3135 2.39304C17.0538 1.63552 17.9379 1.0336 18.9141 0.62265C19.8902 0.211697 20.9387 0 21.9978 0C23.0569 0 24.1054 0.211697 25.0815 0.62265C26.0577 1.0336 26.9418 1.63552 27.682 2.39304L25.7158 4.31254C25.2317 3.81695 24.6534 3.42315 24.0149 3.15428C23.3764 2.88541 22.6906 2.74691 21.9978 2.74691C21.305 2.74691 20.6192 2.88541 19.9807 3.15428C19.3422 3.42315 18.7639 3.81695 18.2798 4.31254L15.7498 6.90854L12.1198 6.86454C11.4273 6.8568 10.7402 6.98753 10.0989 7.24906C9.45765 7.51059 8.87512 7.89765 8.38553 8.38749C7.89595 8.87732 7.5092 9.46007 7.248 10.1015C6.98681 10.7429 6.85643 11.43 6.86454 12.1225L6.90854 15.747L4.31254 18.2798C3.81695 18.7639 3.42315 19.3422 3.15428 19.9807C2.88541 20.6192 2.74691 21.305 2.74691 21.9978C2.74691 22.6906 2.88541 23.3764 3.15428 24.0149C3.42315 24.6534 3.81695 25.2317 4.31254 25.7158L6.90854 28.2458L6.86454 31.8758C6.8568 32.5683 6.98753 33.2554 7.24906 33.8966C7.51059 34.5379 7.89765 35.1205 8.38749 35.61C8.87732 36.0996 9.46007 36.4864 10.1015 36.7476C10.7429 37.0088 11.43 37.1391 12.1225 37.131L15.747 37.087L18.2798 39.683C18.7639 40.1786 19.3422 40.5724 19.9807 40.8413C20.6192 41.1102 21.305 41.2487 21.9978 41.2487C22.6906 41.2487 23.3764 41.1102 24.0149 40.8413C24.6534 40.5724 25.2317 40.1786 25.7158 39.683L28.2458 37.087L31.8758 37.131C32.5683 37.1388 33.2554 37.008 33.8966 36.7465C34.5379 36.485 35.1205 36.0979 35.61 35.6081C36.0996 35.1183 36.4864 34.5355 36.7476 33.8941C37.0088 33.2527 37.1391 32.5655 37.131 31.873L37.087 28.2485L39.683 25.7158C40.1786 25.2317 40.5724 24.6534 40.8413 24.0149C41.1102 23.3764 41.2487 22.6906 41.2487 21.9978C41.2487 21.305 41.1102 20.6192 40.8413 19.9807C40.5724 19.3422 40.1786 18.7639 39.683 18.2798L37.087 15.7498L37.131 12.1198C37.1388 11.4273 37.008 10.7402 36.7465 10.0989C36.485 9.45765 36.0979 8.87512 35.6081 8.38553C35.1183 7.89595 34.5355 7.5092 33.8941 7.248C33.2527 6.98681 32.5655 6.85643 31.873 6.86454L28.2485 6.90854Z" fill="#00363D"/>
</svg>
