<svg width="44" height="44" viewBox="0 0 44 44" fill="none" xmlns="http://www.w3.org/2000/svg">
<g clip-path="url(#clip0_1703_15537)">
<path d="M22.1378 26.4C23.0618 26.4 23.5238 25.74 23.6613 24.6757C23.7713 23.2072 24.2058 22.4345 25.9905 21.2107C27.8413 19.9045 28.8753 18.2133 28.8753 15.7493C28.8753 12.1055 26.3453 9.625 22.6548 9.625C19.8498 9.625 17.7268 10.978 16.8798 13.1725C16.6223 13.7716 16.4931 14.418 16.5003 15.07C16.5003 16.1508 17.0585 16.83 17.999 16.83C18.747 16.83 19.2503 16.4258 19.55 15.4275C19.9845 13.7995 20.9938 12.9113 22.5035 12.9113C24.181 12.9113 25.336 14.1377 25.336 15.8922C25.336 17.4405 24.764 18.326 23.0755 19.536C21.3733 20.7268 20.529 22.0495 20.529 24.046V24.3512C20.529 25.5282 21.101 26.4 22.1378 26.4Z" fill="#00363D"/>
<path d="M28.2524 6.91049L25.7197 4.31449L27.6859 2.39499L29.3964 4.14674L31.8439 4.11649C32.9034 4.10395 33.9546 4.30337 34.9359 4.70303C35.9171 5.10269 36.8085 5.69452 37.5577 6.4437C38.3069 7.19289 38.8987 8.08432 39.2984 9.06556C39.6981 10.0468 39.8975 11.0981 39.8849 12.1575L39.8574 14.605L41.6064 16.3155C42.364 17.0557 42.9659 17.9399 43.3768 18.916C43.7878 19.8922 43.9995 20.9406 43.9995 21.9997C43.9995 23.0589 43.7878 24.1073 43.3768 25.0835C42.9659 26.0596 42.364 26.9438 41.6064 27.684L39.8547 29.3945L39.8849 31.842C39.8975 32.9014 39.6981 33.9527 39.2984 34.9339C38.8987 35.9152 38.3069 36.8066 37.5577 37.5558C36.8085 38.305 35.9171 38.8968 34.9359 39.2965C33.9546 39.6961 32.9034 39.8955 31.8439 39.883L29.3964 39.8555L27.6859 41.6045C26.9457 42.362 26.0616 42.9639 25.0854 43.3749C24.1093 43.7858 23.0608 43.9975 22.0017 43.9975C20.9426 43.9975 19.8941 43.7858 18.918 43.3749C17.9418 42.9639 17.0577 42.362 16.3174 41.6045L14.6069 39.8527L12.1594 39.883C11.1 39.8955 10.0488 39.6961 9.06751 39.2965C8.08627 38.8968 7.19484 38.305 6.44566 37.5558C5.69647 36.8066 5.10464 35.9152 4.70499 34.9339C4.30533 33.9527 4.1059 32.9014 4.11844 31.842L4.14594 29.3945L2.39694 27.684C1.63943 26.9438 1.03751 26.0596 0.626556 25.0835C0.215603 24.1073 0.00390625 23.0589 0.00390625 21.9997C0.00390625 20.9406 0.215603 19.8922 0.626556 18.916C1.03751 17.9399 1.63943 17.0557 2.39694 16.3155L4.14869 14.605L4.11844 12.1575C4.1059 11.0981 4.30533 10.0468 4.70499 9.06556C5.10464 8.08432 5.69647 7.19289 6.44566 6.4437C7.19484 5.69452 8.08627 5.10269 9.06751 4.70303C10.0488 4.30337 11.1 4.10395 12.1594 4.11649L14.6069 4.14399L16.3174 2.39499C17.0577 1.63748 17.9418 1.03556 18.918 0.624603C19.8941 0.21365 20.9426 0.00195312 22.0017 0.00195312C23.0608 0.00195312 24.1093 0.21365 25.0854 0.624603C26.0616 1.03556 26.9457 1.63748 27.6859 2.39499L25.7197 4.31449C25.2356 3.8189 24.6573 3.4251 24.0188 3.15623C23.3803 2.88737 22.6945 2.74886 22.0017 2.74886C21.3089 2.74886 20.6231 2.88737 19.9846 3.15623C19.3461 3.4251 18.7678 3.8189 18.2837 4.31449L15.7537 6.91049L12.1237 6.86649C11.4312 6.85875 10.7441 6.98948 10.1028 7.25102C9.46156 7.51255 8.87902 7.8996 8.38944 8.38944C7.89986 8.87928 7.51311 9.46202 7.25191 10.1034C6.99071 10.7448 6.86034 11.432 6.86844 12.1245L6.91244 15.749L4.31644 18.2817C3.82086 18.7658 3.42705 19.3441 3.15819 19.9826C2.88932 20.6211 2.75081 21.3069 2.75081 21.9997C2.75081 22.6925 2.88932 23.3783 3.15819 24.0168C3.42705 24.6553 3.82086 25.2336 4.31644 25.7177L6.91244 28.2477L6.86844 31.8777C6.8607 32.5703 6.99144 33.2573 7.25297 33.8986C7.5145 34.5399 7.90156 35.1224 8.39139 35.612C8.88123 36.1016 9.46397 36.4883 10.1054 36.7495C10.7468 37.0107 11.4339 37.1411 12.1264 37.133L15.7509 37.089L18.2837 39.685C18.7678 40.1806 19.3461 40.5744 19.9846 40.8433C20.6231 41.1121 21.3089 41.2506 22.0017 41.2506C22.6945 41.2506 23.3803 41.1121 24.0188 40.8433C24.6573 40.5744 25.2356 40.1806 25.7197 39.685L28.2497 37.089L31.8797 37.133C32.5722 37.1407 33.2593 37.01 33.9006 36.7485C34.5418 36.4869 35.1244 36.0999 35.614 35.61C36.1035 35.1202 36.4903 34.5375 36.7515 33.8961C37.0127 33.2546 37.1431 32.5675 37.1349 31.875L37.0909 28.2505L39.6869 25.7177C40.1825 25.2336 40.5763 24.6553 40.8452 24.0168C41.1141 23.3783 41.2526 22.6925 41.2526 21.9997C41.2526 21.3069 41.1141 20.6211 40.8452 19.9826C40.5763 19.3441 40.1825 18.7658 39.6869 18.2817L37.0909 15.7517L37.1349 12.1217C37.1427 11.4292 37.012 10.7422 36.7504 10.1009C36.4889 9.45961 36.1018 8.87707 35.612 8.38749C35.1222 7.8979 34.5394 7.51115 33.898 7.24996C33.2566 6.98876 32.5695 6.85839 31.8769 6.86649L28.2524 6.91049Z" fill="#00363D"/>
<path d="M19.2539 30.25C19.2539 29.5207 19.5436 28.8212 20.0594 28.3055C20.5751 27.7897 21.2746 27.5 22.0039 27.5C22.7333 27.5 23.4327 27.7897 23.9485 28.3055C24.4642 28.8212 24.7539 29.5207 24.7539 30.25C24.7539 30.9793 24.4642 31.6788 23.9485 32.1945C23.4327 32.7103 22.7333 33 22.0039 33C21.2746 33 20.5751 32.7103 20.0594 32.1945C19.5436 31.6788 19.2539 30.9793 19.2539 30.25Z" fill="#00363D"/>
</g>
<defs>
<clipPath id="clip0_1703_15537">
<rect width="44" height="44" fill="white"/>
</clipPath>
</defs>
</svg>
