<svg width="17" height="23" viewBox="0 0 17 23" fill="none" xmlns="http://www.w3.org/2000/svg">
<path d="M8.5 14.5263C7.4881 14.5263 6.62798 14.1732 5.91964 13.4671C5.21131 12.761 4.85714 11.9035 4.85714 10.8947V3.63158C4.85714 2.62281 5.21131 1.76535 5.91964 1.05921C6.62798 0.35307 7.4881 0 8.5 0C9.5119 0 10.372 0.35307 11.0804 1.05921C11.7887 1.76535 12.1429 2.62281 12.1429 3.63158V10.8947C12.1429 11.9035 11.7887 12.761 11.0804 13.4671C10.372 14.1732 9.5119 14.5263 8.5 14.5263ZM7.28571 23V19.2776C5.18095 18.9952 3.44048 18.057 2.06429 16.4632C0.688095 14.8693 0 13.0132 0 10.8947H2.42857C2.42857 12.5693 3.02054 13.9967 4.20446 15.177C5.38839 16.3572 6.82024 16.9474 8.5 16.9474C10.1798 16.9474 11.6116 16.3572 12.7955 15.177C13.9795 13.9967 14.5714 12.5693 14.5714 10.8947H17C17 13.0132 16.3119 14.8693 14.9357 16.4632C13.5595 18.057 11.819 18.9952 9.71429 19.2776V23H7.28571Z" fill="#1D1B20"/>
</svg>
