<svg width="22" height="25" viewBox="0 0 22 25" fill="none" xmlns="http://www.w3.org/2000/svg">
<path d="M11 15.7895C9.69048 15.7895 8.57738 15.4057 7.66071 14.6382C6.74405 13.8706 6.28571 12.9386 6.28571 11.8421V3.94737C6.28571 2.85088 6.74405 1.91886 7.66071 1.15132C8.57738 0.383772 9.69048 0 11 0C12.3095 0 13.4226 0.383772 14.3393 1.15132C15.256 1.91886 15.7143 2.85088 15.7143 3.94737V11.8421C15.7143 12.9386 15.256 13.8706 14.3393 14.6382C13.4226 15.4057 12.3095 15.7895 11 15.7895ZM9.42857 25V20.9539C6.70476 20.6469 4.45238 19.6272 2.67143 17.8947C0.890476 16.1623 0 14.1447 0 11.8421H3.14286C3.14286 13.6623 3.90893 15.2138 5.44107 16.4967C6.97321 17.7796 8.82619 18.4211 11 18.4211C13.1738 18.4211 15.0268 17.7796 16.5589 16.4967C18.0911 15.2138 18.8571 13.6623 18.8571 11.8421H22C22 14.1447 21.1095 16.1623 19.3286 17.8947C17.5476 19.6272 15.2952 20.6469 12.5714 20.9539V25H9.42857Z" fill="#1D1B20"/>
</svg>
