<svg width="56" height="56" viewBox="0 0 56 56" fill="none" xmlns="http://www.w3.org/2000/svg">
<path d="M26.8346 7C29.1286 6.9994 31.3596 7.75005 33.1866 9.13718C35.0137 10.5243 36.3362 12.4716 36.952 14.6813L37.0733 15.1597L41.4366 14.07C41.7556 13.9906 42.0877 13.9795 42.4112 14.0374C42.7347 14.0953 43.0423 14.2208 43.314 14.4059C43.5856 14.5909 43.815 14.8313 43.9873 15.1111C44.1596 15.391 44.2708 15.7042 44.3136 16.03L44.3346 16.3333V20.5567C45.6507 21.8173 46.7289 23.3049 47.5173 24.948L47.8393 25.6667H49.0013C49.5728 25.6667 50.1244 25.8766 50.5515 26.2563C50.9786 26.6361 51.2514 27.1594 51.3183 27.727L51.3346 28V35C51.3347 35.384 51.24 35.7622 51.0588 36.1008C50.8777 36.4395 50.6158 36.7282 50.2963 36.9413L50.0443 37.086L47.319 38.451C46.2052 40.6108 44.5887 42.4714 42.6056 43.876L42.0013 44.282V46.6667C42.0012 47.2382 41.7914 47.7898 41.4116 48.2169C41.0319 48.6439 40.5086 48.9168 39.941 48.9837L39.668 49H32.668C32.0965 48.9999 31.5448 48.7901 31.1178 48.4103C30.6907 48.0306 30.4178 47.5073 30.351 46.9397L30.3346 46.6667H28.0013C28.0012 47.2382 27.7914 47.7898 27.4116 48.2169C27.0319 48.6439 26.5086 48.9168 25.941 48.9837L25.668 49H18.668C18.0965 48.9999 17.5448 48.7901 17.1178 48.4103C16.6907 48.0306 16.4178 47.5073 16.351 46.9397L16.3346 46.6667V44.282C14.6483 43.2051 13.1917 41.8052 12.0488 40.1629C10.9059 38.5206 10.0992 36.6684 9.6753 34.713C8.29906 34.3041 7.08183 33.4819 6.18862 32.3579C5.29541 31.2339 4.76943 29.8624 4.68197 28.4293L4.66797 28V26.8333C4.66863 26.2386 4.89635 25.6666 5.30461 25.2341C5.71288 24.8017 6.27086 24.5415 6.86456 24.5066C7.45825 24.4717 8.04285 24.6649 8.49891 25.0466C8.95497 25.4283 9.24806 25.9698 9.3183 26.5603L9.33464 26.8333V28C9.33775 28.3484 9.40775 28.6712 9.54464 28.9683C9.90022 26.8675 10.6945 24.8651 11.8757 23.0917C13.0568 21.3184 14.5984 19.8138 16.4 18.676C16.2344 17.2071 16.3809 15.7199 16.8297 14.3115C17.2786 12.9031 18.0198 11.6054 19.0048 10.5032C19.9898 9.40106 21.1964 8.51928 22.5457 7.91559C23.8949 7.3119 25.3565 6.9999 26.8346 7ZM39.668 19.32L33.2326 20.93L32.9526 20.9837L32.668 21H24.5013C22.142 20.9984 19.8509 21.7915 17.9975 23.2513C16.1441 24.7111 14.8363 26.7526 14.285 29.0466C13.7338 31.3406 13.9711 33.7534 14.9589 35.896C15.9467 38.0386 17.6272 39.7861 19.7296 40.8567C20.0684 41.0299 20.3596 41.2833 20.578 41.5948C20.7964 41.9063 20.9353 42.2665 20.9826 42.644L21.0013 42.9333V44.3333H23.3346C23.3347 43.7618 23.5445 43.2102 23.9243 42.7831C24.3041 42.356 24.8274 42.0832 25.395 42.0163L25.668 42H32.668C33.2395 42.0001 33.7911 42.2099 34.2182 42.5897C34.6453 42.9694 34.9181 43.4927 34.985 44.0603L35.0013 44.3333H37.3346V42.9333C37.3349 42.5037 37.4537 42.0824 37.6781 41.716C37.9025 41.3495 38.2237 41.0522 38.6063 40.8567C40.7478 39.761 42.4503 37.9662 43.4316 35.77C43.6067 35.3773 43.8869 35.0405 44.2413 34.797L44.519 34.6337L46.668 33.558V30.3333H46.185C45.6769 30.3332 45.1828 30.1672 44.7776 29.8606C44.3725 29.554 44.0785 29.1236 43.9403 28.6347C43.3572 26.5818 42.1623 24.7554 40.515 23.3987C40.058 23.0212 39.7619 22.4839 39.6866 21.896L39.668 21.5997V19.32ZM37.3346 25.6667C37.9535 25.6667 38.547 25.9125 38.9846 26.3501C39.4221 26.7877 39.668 27.3812 39.668 28C39.668 28.6188 39.4221 29.2123 38.9846 29.6499C38.547 30.0875 37.9535 30.3333 37.3346 30.3333C36.7158 30.3333 36.1223 30.0875 35.6847 29.6499C35.2471 29.2123 35.0013 28.6188 35.0013 28C35.0013 27.3812 35.2471 26.7877 35.6847 26.3501C36.1223 25.9125 36.7158 25.6667 37.3346 25.6667ZM26.8346 11.6667C25.4213 11.6667 24.0561 12.1798 22.9926 13.1106C21.9291 14.0415 21.2398 15.3268 21.0526 16.7277C22.1833 16.4647 23.3404 16.3324 24.5013 16.3333H32.381L32.5443 16.2937C32.2676 14.9846 31.5493 13.8104 30.5097 12.968C29.4702 12.1256 28.1727 11.6661 26.8346 11.6667Z" fill="#00363D"/>
</svg>
