<svg width="44" height="44" viewBox="0 0 44 44" fill="none" xmlns="http://www.w3.org/2000/svg">
<g clip-path="url(#clip0_1703_15562)">
<path d="M35.2275 20.757C35.7012 20.263 36.2687 19.8686 36.8968 19.5968C37.5249 19.325 38.2009 19.1813 38.8853 19.1742C39.5696 19.167 40.2485 19.2965 40.8822 19.5551C41.5158 19.8137 42.0915 20.1962 42.5754 20.6801C43.0593 21.164 43.4418 21.7397 43.7004 22.3733C43.959 23.007 44.0885 23.6859 44.0813 24.3702C44.0742 25.0546 43.9305 25.7306 43.6587 26.3587C43.3869 26.9868 42.9925 27.5543 42.4985 28.028L29.2188 41.3105C28.444 42.0847 27.4735 42.6341 26.411 42.9L22.2915 43.9313C21.8813 44.0337 21.4516 44.0282 21.0442 43.9153C20.6368 43.8023 20.2656 43.5857 19.9668 43.2866C19.6679 42.9875 19.4517 42.6161 19.3391 42.2086C19.2265 41.8011 19.2214 41.3713 19.3242 40.9613L20.3528 36.8445C20.6187 35.782 21.168 34.8115 21.9422 34.0368L35.2275 20.757ZM20.625 22C23.1935 22 25.344 23.7628 25.949 26.1443L20.0007 32.0925C19.0932 33 18.4058 34.0918 17.9657 35.288C16.5818 35.5968 15.168 35.7517 13.75 35.75C10.5188 35.75 7.5075 35.002 5.25525 33.6325C3.00025 32.2575 1.375 30.1538 1.375 27.5C1.375 26.0413 1.95446 24.6424 2.98591 23.6109C4.01736 22.5795 5.41631 22 6.875 22H20.625ZM13.75 4.125C15.7557 4.125 17.6793 4.92176 19.0975 6.34001C20.5157 7.75825 21.3125 9.6818 21.3125 11.6875C21.3125 13.6932 20.5157 15.6168 19.0975 17.035C17.6793 18.4532 15.7557 19.25 13.75 19.25C11.7443 19.25 9.82075 18.4532 8.4025 17.035C6.98426 15.6168 6.1875 13.6932 6.1875 11.6875C6.1875 9.6818 6.98426 7.75825 8.4025 6.34001C9.82075 4.92176 11.7443 4.125 13.75 4.125ZM31.6305 6.86675C32.4546 6.84938 33.2738 6.99669 34.0402 7.30005C34.8066 7.6034 35.5048 8.0567 36.0937 8.63337C36.6827 9.21003 37.1506 9.89846 37.47 10.6583C37.7895 11.4182 37.954 12.2341 37.954 13.0584C37.954 13.8826 37.7895 14.6986 37.47 15.4584C37.1506 16.2183 36.6827 16.9067 36.0937 17.4834C35.5048 18.0601 34.8066 18.5133 34.0402 18.8167C33.2738 19.1201 32.4546 19.2674 31.6305 19.25C30.011 19.2159 28.4693 18.5485 27.336 17.3911C26.2027 16.2337 25.568 14.6783 25.568 13.0584C25.568 11.4385 26.2027 9.88308 27.336 8.72565C28.4693 7.56821 30.011 6.90088 31.6305 6.86675Z" fill="#00363D"/>
</g>
<defs>
<clipPath id="clip0_1703_15562">
<rect width="44" height="44" fill="white"/>
</clipPath>
</defs>
</svg>
