<svg width="119" height="119" viewBox="0 0 119 119" fill="none" xmlns="http://www.w3.org/2000/svg">
<path d="M59.5 0C92.3609 0 119 26.6391 119 59.5C119 92.3609 92.3609 119 59.5 119C26.6391 119 0 92.3609 0 59.5C0 26.6391 26.6391 0 59.5 0Z" fill="#DEDEDE"/>
<g clip-path="url(#clip0_2568_4606)">
<path d="M76.4882 92H38.1559C58.248 80.8063 63.1878 72.946 62.3845 67.3732C60.7073 55.7394 33.901 53.3115 33.0218 41.6616C32.5802 35.7999 38.9074 30.3073 45.7865 26H53.5382C44.3993 32.2002 42.6582 36.5329 43.0905 39.4825C44.7797 51.0093 81.0084 51.4571 88.284 67.3732C91.7648 75.6896 83.9291 85.8992 76.4882 92Z" fill="#6D6D6D" fill-opacity="0.63"/>
<path d="M79.6144 55.5933C79.5176 55.4956 79.4024 55.4182 79.2755 55.3653C79.1485 55.3124 79.0124 55.2852 78.8749 55.2852C78.7373 55.2852 78.6012 55.3124 78.4743 55.3653C78.3473 55.4182 78.2321 55.4956 78.1353 55.5933L71.5832 62.1558L67.1144 57.6766C67.0176 57.579 66.9024 57.5015 66.7755 57.4486C66.6485 57.3957 66.5124 57.3685 66.3749 57.3685C66.2373 57.3685 66.1012 57.3957 65.9743 57.4486C65.8473 57.5015 65.7321 57.579 65.6353 57.6766L59.3853 63.9266C59.2876 64.0234 59.2101 64.1387 59.1573 64.2656C59.1044 64.3925 59.0771 64.5287 59.0771 64.6662C59.0771 64.8037 59.1044 64.9399 59.1573 65.0668C59.2101 65.1937 59.2876 65.3089 59.3853 65.4058C59.4821 65.5034 59.5973 65.5809 59.7243 65.6338C59.8512 65.6867 59.9873 65.7139 60.1249 65.7139C60.2624 65.7139 60.3985 65.6867 60.5255 65.6338C60.6524 65.5809 60.7676 65.5034 60.8644 65.4058L66.3749 59.8849L70.8436 64.3641C70.9404 64.4617 71.0557 64.5392 71.1826 64.5921C71.3095 64.645 71.4457 64.6722 71.5832 64.6722C71.7207 64.6722 71.8569 64.645 71.9838 64.5921C72.1107 64.5392 72.2259 64.4617 72.3228 64.3641L79.6144 57.0724C79.7121 56.9756 79.7896 56.8604 79.8425 56.7335C79.8953 56.6065 79.9226 56.4704 79.9226 56.3329C79.9226 56.1954 79.8953 56.0592 79.8425 55.9323C79.7896 55.8053 79.7121 55.6901 79.6144 55.5933Z" fill="#DEDEDE"/>
</g>
<defs>
<clipPath id="clip0_2568_4606">
<rect width="56" height="66" fill="white" transform="translate(33 26)"/>
</clipPath>
</defs>
</svg>
