<svg width="31" height="31" viewBox="0 0 31 31" fill="none" xmlns="http://www.w3.org/2000/svg">
<path d="M19.3753 21.9583V23.25C19.3753 24.2777 18.9671 25.2633 18.2404 25.99C17.5137 26.7167 16.528 27.125 15.5003 27.125C14.4726 27.125 13.487 26.7167 12.7603 25.99C12.0336 25.2633 11.6253 24.2777 11.6253 23.25V21.9583M19.3753 21.9583H11.6253M19.3753 21.9583H24.0124C24.5071 21.9583 24.7551 21.9583 24.9553 21.8912C25.1436 21.8274 25.3147 21.721 25.4552 21.5803C25.5956 21.4396 25.7017 21.2684 25.7652 21.08C25.8337 20.8785 25.8337 20.6305 25.8337 20.1319C25.8337 19.9136 25.8337 19.8051 25.8156 19.7005C25.7837 19.5049 25.7072 19.3193 25.5921 19.158C25.5301 19.0715 25.4526 18.994 25.2989 18.8403L24.7952 18.3365C24.7148 18.2561 24.6511 18.1606 24.6077 18.0556C24.5642 17.9505 24.5419 17.8379 24.542 17.7242V12.9167C24.542 11.7293 24.3081 10.5536 23.8537 9.45657C23.3994 8.35959 22.7333 7.36284 21.8937 6.52324C21.0542 5.68365 20.0574 5.01764 18.9604 4.56326C17.8634 4.10887 16.6877 3.875 15.5003 3.875C14.313 3.875 13.1372 4.10887 12.0402 4.56326C10.9432 5.01764 9.9465 5.68365 9.1069 6.52324C8.26731 7.36284 7.6013 8.35959 7.14691 9.45657C6.69253 10.5536 6.45866 11.7293 6.45866 12.9167V17.7242C6.45874 17.8379 6.43642 17.9505 6.39298 18.0556C6.34954 18.1606 6.28583 18.2561 6.20549 18.3365L5.70174 18.8403C5.54674 18.9953 5.47053 19.0715 5.40983 19.1567C5.29361 19.3181 5.21625 19.5042 5.18378 19.7005C5.16699 19.8038 5.16699 19.9136 5.16699 20.1319C5.16699 20.6305 5.16699 20.8785 5.23416 21.08C5.29788 21.2687 5.40437 21.4401 5.54531 21.5808C5.68625 21.7215 5.85782 21.8277 6.04662 21.8912C6.24683 21.9583 6.49353 21.9583 6.98824 21.9583H11.6253" stroke="black" stroke-width="2" stroke-linecap="round" stroke-linejoin="round"/>
</svg>
