<svg width="49" height="49" viewBox="0 0 49 49" fill="none" xmlns="http://www.w3.org/2000/svg">
<path d="M10.2094 38.7913C9.63091 38.7913 9.14635 38.5953 8.75571 38.2033C8.36508 37.8113 8.16908 37.3268 8.16771 36.7497C8.16635 36.1726 8.36235 35.688 8.75571 35.296C9.14908 34.904 9.63363 34.708 10.2094 34.708H12.251V20.4163C12.251 17.592 13.1017 15.0828 14.8031 12.8887C16.5045 10.6946 18.7163 9.2566 21.4385 8.57468V7.14551C21.4385 6.29482 21.7366 5.57207 22.3328 4.97726C22.929 4.38246 23.6517 4.08437 24.501 4.08301C25.3504 4.08165 26.0738 4.37973 26.6713 4.97726C27.2689 5.57479 27.5663 6.29754 27.5635 7.14551V8.57468C30.2858 9.25523 32.4976 10.6932 34.199 12.8887C35.9004 15.0842 36.751 17.5934 36.751 20.4163V34.708H38.7927C39.3712 34.708 39.8564 34.904 40.2484 35.296C40.6404 35.688 40.8357 36.1726 40.8344 36.7497C40.833 37.3268 40.637 37.812 40.2464 38.2054C39.8557 38.5987 39.3712 38.7941 38.7927 38.7913H10.2094ZM24.501 44.9163C23.3781 44.9163 22.4172 44.5169 21.6182 43.7179C20.8192 42.9189 20.4191 41.9573 20.4177 40.833H28.5844C28.5844 41.9559 28.1849 42.9175 27.3859 43.7179C26.587 44.5182 25.6253 44.9177 24.501 44.9163ZM16.3344 34.708H32.6677V20.4163C32.6677 18.1705 31.8681 16.2479 30.2688 14.6486C28.6695 13.0493 26.7469 12.2497 24.501 12.2497C22.2552 12.2497 20.3326 13.0493 18.7333 14.6486C17.134 16.2479 16.3344 18.1705 16.3344 20.4163V34.708ZM6.12605 20.4163C5.54758 20.4163 5.06302 20.1952 4.67238 19.7528C4.28174 19.3104 4.11977 18.8 4.18646 18.2216C4.45869 15.6695 5.17327 13.2957 6.33021 11.1002C7.48716 8.90475 8.96737 6.99103 10.7708 5.35905C11.2132 4.98475 11.7155 4.81461 12.2776 4.84864C12.8397 4.88267 13.2903 5.13787 13.6292 5.61426C13.9681 6.09065 14.1042 6.60107 14.0375 7.14551C13.9708 7.68996 13.7156 8.16635 13.2719 8.57468C11.9448 9.83371 10.8559 11.2969 10.0052 12.9643C9.15452 14.6316 8.59306 16.4351 8.32084 18.3747C8.25278 18.9532 8.01459 19.4384 7.60626 19.8304C7.19792 20.2224 6.70452 20.4177 6.12605 20.4163ZM42.876 20.4163C42.2976 20.4163 41.8042 20.2203 41.3958 19.8283C40.9875 19.4363 40.7493 18.9518 40.6813 18.3747C40.409 16.4351 39.8476 14.6316 38.9969 12.9643C38.1462 11.2969 37.0573 9.83371 35.7302 8.57468C35.2879 8.16635 35.0326 7.68996 34.9646 7.14551C34.8965 6.60107 35.0326 6.09065 35.3729 5.61426C35.7132 5.13787 36.1644 4.88267 36.7266 4.84864C37.2887 4.81461 37.7903 4.98475 38.2313 5.35905C40.0347 6.99239 41.5149 8.90611 42.6719 11.1002C43.8288 13.2943 44.5434 15.6681 44.8156 18.2216C44.8837 18.8 44.7224 19.3104 44.3318 19.7528C43.9411 20.1952 43.4559 20.4163 42.876 20.4163Z" fill="#00363D"/>
</svg>
