<svg width="44" height="44" viewBox="0 0 44 44" fill="none" xmlns="http://www.w3.org/2000/svg">
<path d="M18.7487 17.8333C19.5913 17.8333 20.4257 17.6674 21.2042 17.3449C21.9828 17.0224 22.6901 16.5498 23.286 15.9539C23.8818 15.3581 24.3545 14.6507 24.6769 13.8722C24.9994 13.0937 25.1654 12.2593 25.1654 11.4167C25.1654 10.574 24.9994 9.73962 24.6769 8.96111C24.3545 8.18261 23.8818 7.47524 23.286 6.8794C22.6901 6.28356 21.9828 5.81091 21.2042 5.48844C20.4257 5.16597 19.5913 5 18.7487 5C17.0469 5 15.4148 5.67604 14.2114 6.8794C13.0081 8.08276 12.332 9.71486 12.332 11.4167C12.332 13.1185 13.0081 14.7506 14.2114 15.9539C15.4148 17.1573 17.0469 17.8333 18.7487 17.8333Z" fill="#00363D" stroke="#00363D" stroke-width="2" stroke-linecap="round" stroke-linejoin="round"/>
<path d="M39.8333 13.25L32.5 20.5833M32.5 13.25L39.8333 20.5833" stroke="#00363D" stroke-width="2" stroke-linecap="round" stroke-linejoin="round"/>
<path d="M5 36.9003V38.0003H32.5V36.9003C32.5 32.7937 32.5 30.7403 31.7007 29.171C30.9976 27.7912 29.8758 26.6694 28.496 25.9663C26.9267 25.167 24.8733 25.167 20.7667 25.167H16.7333C12.6267 25.167 10.5733 25.167 9.004 25.9663C7.62421 26.6694 6.50239 27.7912 5.79933 29.171C5 30.7403 5 32.7937 5 36.9003Z" fill="#00363D" stroke="#00363D" stroke-width="2" stroke-linecap="round" stroke-linejoin="round"/>
</svg>
