<svg width="28" height="28" viewBox="0 0 28 28" fill="none" xmlns="http://www.w3.org/2000/svg">
<path fill-rule="evenodd" clip-rule="evenodd" d="M13.9997 4.66683C12.3672 4.66653 10.7633 5.0944 9.34785 5.90773C7.93245 6.72106 6.75511 7.8914 5.93337 9.30194C5.11163 10.7125 4.67422 12.3139 4.6648 13.9463C4.65538 15.5787 5.07428 17.1851 5.87969 18.605C6.42407 17.8975 7.12386 17.3247 7.92495 16.9308C8.72605 16.5369 9.607 16.3326 10.4997 16.3335H17.4997C18.3924 16.3326 19.2733 16.5369 20.0744 16.9308C20.8755 17.3247 21.5753 17.8975 22.1197 18.605C22.9251 17.1851 23.344 15.5787 23.3346 13.9463C23.3252 12.3139 22.8877 10.7125 22.066 9.30194C21.2443 7.8914 20.0669 6.72106 18.6515 5.90773C17.2361 5.0944 15.6321 4.66653 13.9997 4.66683ZM23.2665 21.0888C23.4127 20.8983 23.5527 20.7031 23.6865 20.5032C24.9799 18.5813 25.6694 16.3167 25.6664 14.0002C25.6664 7.55666 20.4432 2.3335 13.9997 2.3335C7.55619 2.3335 2.33302 7.55666 2.33302 14.0002C2.32934 16.563 3.17307 19.0552 4.73285 21.0888L4.72702 21.1098L5.14119 21.5917C6.23539 22.8709 7.59397 23.8977 9.12329 24.6012C10.6526 25.3048 12.3163 25.6683 13.9997 25.6668C14.2517 25.6668 14.5021 25.659 14.751 25.6435C16.8561 25.5107 18.8853 24.8069 20.6205 23.6077C21.4504 23.0352 22.2025 22.3575 22.8582 21.5917L23.2724 21.1098L23.2665 21.0888ZM13.9997 7.00016C13.0714 7.00016 12.1812 7.36891 11.5248 8.02529C10.8684 8.68167 10.4997 9.5719 10.4997 10.5002C10.4997 11.4284 10.8684 12.3187 11.5248 12.975C12.1812 13.6314 13.0714 14.0002 13.9997 14.0002C14.9279 14.0002 15.8182 13.6314 16.4746 12.975C17.1309 12.3187 17.4997 11.4284 17.4997 10.5002C17.4997 9.5719 17.1309 8.68167 16.4746 8.02529C15.8182 7.36891 14.9279 7.00016 13.9997 7.00016Z" fill="black"/>
</svg>
