<svg width="57" height="57" viewBox="0 0 57 57" fill="none" xmlns="http://www.w3.org/2000/svg">
<path d="M28.5 28.8966L32.4662 31.3096C32.8083 31.525 33.1518 31.5075 33.497 31.2574C33.8406 31.0056 33.9688 30.6684 33.8818 30.2456L32.8296 25.764L36.3209 22.7644C36.6534 22.4683 36.7563 22.1263 36.6296 21.7384C36.503 21.3505 36.2227 21.1367 35.7889 21.0971L31.1909 20.6815L29.3859 16.4516C29.218 16.0669 28.9228 15.8745 28.5 15.8745C28.0772 15.8745 27.782 16.0669 27.6141 16.4516L25.8091 20.6791L21.2111 21.0971C20.7789 21.1367 20.4986 21.3505 20.3704 21.7384C20.2421 22.1263 20.345 22.4683 20.6791 22.7644L24.1704 25.764L23.1206 30.2432C23.032 30.6676 23.1594 31.0056 23.503 31.2574C23.8466 31.5091 24.191 31.5265 24.5361 31.3096L28.5 28.8966ZM14.4329 40.375L10.3859 44.422C9.78579 45.0221 9.09229 45.1598 8.30537 44.8353C7.51846 44.5107 7.125 43.9209 7.125 43.0659V10.963C7.125 9.86892 7.49154 8.95613 8.22463 8.22463C8.95771 7.49313 9.8705 7.12658 10.963 7.125H46.0394C47.1319 7.125 48.0447 7.49154 48.7778 8.22463C49.5108 8.95771 49.8766 9.8705 49.875 10.963V23.7512V36.5394C49.875 37.6319 49.5093 38.5447 48.7778 39.2778C48.0462 40.0108 47.1335 40.3766 46.0394 40.375H14.4329ZM13.4188 38H46.0394C46.4035 38 46.7384 37.848 47.044 37.544C47.3496 37.24 47.5016 36.9051 47.5 36.5394V10.9606C47.5 10.5965 47.348 10.2616 47.044 9.956C46.74 9.65042 46.4051 9.49842 46.0394 9.5H10.9606C10.5965 9.5 10.2616 9.652 9.956 9.956C9.65042 10.26 9.49842 10.5949 9.5 10.9606V41.9069L13.4188 38Z" fill="#00363D"/>
</svg>
