<svg width="54" height="51" viewBox="0 0 54 51" fill="none" xmlns="http://www.w3.org/2000/svg">
<path d="M38.5275 25.5C45.609 25.5 51.3563 19.788 51.3563 12.75C51.3563 5.712 45.609 0 38.5275 0C31.446 0 25.6987 5.712 25.6987 12.75C25.6987 19.788 31.446 25.5 38.5275 25.5ZM52.5109 39.78C51.5103 38.76 50.2531 38.25 48.7906 38.25H30.8302L25.4934 36.3885L26.3401 33.9915L30.8302 35.7H38.0144C38.9124 35.7 39.6308 35.343 40.2209 34.7565C40.811 34.17 41.0933 33.456 41.0933 32.6655C41.0933 31.2885 40.4262 30.345 39.092 29.8095L20.4389 22.95H15.4356V45.9L33.396 51L53.9991 43.35C54.0247 41.9985 53.5116 40.8 52.5109 39.78ZM10.3041 22.95H0V51H10.3041V22.95Z" fill="#00363D"/>
</svg>
