<svg width="39" height="39" viewBox="0 0 39 39" fill="none" xmlns="http://www.w3.org/2000/svg">
<g clip-path="url(#clip0_1092_32518)">
<path d="M0 19.5C0 24.6717 2.05446 29.6316 5.71142 33.2886C9.36838 36.9455 14.3283 39 19.5 39C24.6717 39 29.6316 36.9455 33.2886 33.2886C36.9455 29.6316 39 24.6717 39 19.5C39 14.3283 36.9455 9.36838 33.2886 5.71142C29.6316 2.05446 24.6717 0 19.5 0C14.3283 0 9.36838 2.05446 5.71142 5.71142C2.05446 9.36838 0 14.3283 0 19.5ZM18.2812 25.5938C18.2812 24.9234 18.8297 24.375 19.5 24.375C22.9277 24.375 26.0203 25.9365 28.3131 28.4197C28.7701 28.9148 28.7396 29.6842 28.2445 30.1412C27.7494 30.5982 26.9801 30.5678 26.523 30.0727C24.6188 28.0084 22.1508 26.8049 19.4924 26.8049C18.8221 26.8049 18.2736 26.2564 18.2736 25.5861L18.2812 25.5938ZM12.1875 31.6875C10.1689 31.6875 8.53125 30.0879 8.53125 28.1074C8.53125 26.584 10.7098 23.5066 11.7 22.1889C11.9438 21.8537 12.4312 21.8537 12.675 22.1889C13.6805 23.5066 15.8438 26.584 15.8438 28.1074C15.8438 30.0879 14.2061 31.6875 12.1875 31.6875ZM28.0008 15.8438C28.0008 16.4902 27.744 17.1102 27.2869 17.5673C26.8297 18.0244 26.2097 18.2812 25.5633 18.2812C24.9168 18.2812 24.2968 18.0244 23.8397 17.5673C23.3826 17.1102 23.1258 16.4902 23.1258 15.8438C23.1258 15.1973 23.3826 14.5773 23.8397 14.1202C24.2968 13.6631 24.9168 13.4062 25.5633 13.4062C26.2097 13.4062 26.8297 13.6631 27.2869 14.1202C27.744 14.5773 28.0008 15.1973 28.0008 15.8438ZM13.3758 13.4062C14.0222 13.4062 14.6422 13.6631 15.0994 14.1202C15.5565 14.5773 15.8133 15.1973 15.8133 15.8438C15.8133 16.4902 15.5565 17.1102 15.0994 17.5673C14.6422 18.0244 14.0222 18.2812 13.3758 18.2812C12.7293 18.2812 12.1093 18.0244 11.6522 17.5673C11.1951 17.1102 10.9383 16.4902 10.9383 15.8438C10.9383 15.1973 11.1951 14.5773 11.6522 14.1202C12.1093 13.6631 12.7293 13.4062 13.3758 13.4062Z" fill="#00363D"/>
</g>
<defs>
<clipPath id="clip0_1092_32518">
<rect width="39" height="39" fill="white"/>
</clipPath>
</defs>
</svg>
