<svg width="14" height="15" viewBox="0 0 14 15" fill="none" xmlns="http://www.w3.org/2000/svg">
<path d="M5.71747 12.1357C6.95911 12.1357 8.10409 11.7096 9.04089 10.9995L12.5651 14.7396C12.7286 14.9132 12.9442 15 13.1747 15C13.658 15 14 14.6055 14 14.1005C14 13.8638 13.9257 13.6349 13.7621 13.4692L10.2602 9.74487C10.9963 8.7191 11.4349 7.44871 11.4349 6.06786C11.4349 2.73014 8.86245 0 5.71747 0C2.57993 0 0 2.72225 0 6.06786C0 9.40558 2.57249 12.1357 5.71747 12.1357ZM5.71747 10.8259C3.26394 10.8259 1.2342 8.67175 1.2342 6.06786C1.2342 3.46397 3.26394 1.30984 5.71747 1.30984C8.171 1.30984 10.2007 3.46397 10.2007 6.06786C10.2007 8.67175 8.171 10.8259 5.71747 10.8259Z" fill="black" fill-opacity="0.6"/>
</svg>
