<svg width="45" height="45" viewBox="0 0 45 45" fill="none" xmlns="http://www.w3.org/2000/svg">
<path d="M38.4108 5.625H30.9258L31.8633 15C31.8633 15 33.7383 16.875 36.5508 16.875C38.0272 16.8769 39.4534 16.3395 40.5614 15.3638C40.679 15.2546 40.7665 15.1172 40.8158 14.9645C40.865 14.8119 40.8743 14.6491 40.8427 14.4919L39.5189 6.5625C39.4746 6.30055 39.3391 6.06272 39.1363 5.89113C38.9334 5.71955 38.6764 5.62527 38.4108 5.625Z" stroke="#00363D" stroke-width="4"/>
<path d="M30.9258 5.625L31.8633 15C31.8633 15 29.9883 16.875 27.1758 16.875C24.3633 16.875 22.4883 15 22.4883 15V5.625H30.9258Z" stroke="#00363D" stroke-width="4"/>
<path d="M22.4883 5.625V15C22.4883 15 20.6133 16.875 17.8008 16.875C14.9883 16.875 13.1133 15 13.1133 15L14.0508 5.625H22.4883Z" stroke="#00363D" stroke-width="4"/>
<path d="M14.0506 5.625H6.56746C6.3012 5.6249 6.04354 5.71924 5.84029 5.89125C5.63704 6.06325 5.50139 6.30177 5.45746 6.56437L4.13559 14.4938C4.10397 14.651 4.11322 14.8137 4.16246 14.9664C4.2117 15.119 4.29929 15.2565 4.41684 15.3656C5.03184 15.9094 6.40621 16.8769 8.42559 16.8769C11.2381 16.8769 13.1131 15.0019 13.1131 15.0019L14.0506 5.625Z" stroke="#00363D" stroke-width="4"/>
<path d="M5.625 16.875V35.625C5.625 36.6196 6.02009 37.5734 6.72335 38.2766C7.42661 38.9799 8.38044 39.375 9.375 39.375H35.625C36.6196 39.375 37.5734 38.9799 38.2766 38.2766C38.9799 37.5734 39.375 36.6196 39.375 35.625V16.875" stroke="#00363D" stroke-width="4"/>
<path d="M27.8125 39.375V28.125C27.8125 27.1304 27.4174 26.1766 26.7141 25.4734C26.0109 24.7701 25.0571 24.375 24.0625 24.375H20.3125C19.3179 24.375 18.3641 24.7701 17.6608 25.4734C16.9576 26.1766 16.5625 27.1304 16.5625 28.125V39.375" stroke="#00363D" stroke-width="4" stroke-miterlimit="16"/>
</svg>
