<svg width="39" height="39" viewBox="0 0 39 39" fill="none" xmlns="http://www.w3.org/2000/svg">
<path d="M19.5 0C15.6433 0 11.8731 1.14365 8.66639 3.28634C5.45963 5.42903 2.96027 8.47451 1.48436 12.0377C0.00844908 15.6008 -0.377716 19.5216 0.374696 23.3043C1.12711 27.0869 2.9843 30.5615 5.71143 33.2886C8.43855 36.0157 11.9131 37.8729 15.6957 38.6253C19.4784 39.3777 23.3992 38.9916 26.9623 37.5156C30.5255 36.0397 33.571 33.5404 35.7137 30.3336C37.8563 27.1269 39 23.3567 39 19.5C39 14.3283 36.9455 9.36838 33.2886 5.71142C29.6316 2.05446 24.6717 0 19.5 0ZM12.1875 11.375C12.8303 11.375 13.4587 11.5656 13.9931 11.9227C14.5276 12.2798 14.9441 12.7874 15.1901 13.3813C15.4361 13.9751 15.5005 14.6286 15.3751 15.259C15.2497 15.8895 14.9401 16.4686 14.4856 16.9231C14.0311 17.3776 13.452 17.6872 12.8216 17.8126C12.1911 17.938 11.5376 17.8736 10.9438 17.6276C10.3499 17.3816 9.84235 16.9651 9.48523 16.4306C9.12812 15.8961 8.93751 15.2678 8.93751 14.625C8.93751 13.763 9.27992 12.9364 9.88941 12.3269C10.4989 11.7174 11.3256 11.375 12.1875 11.375ZM11.4725 25.5287C11.5338 25.4192 11.6235 25.3281 11.7322 25.2652C11.8408 25.2023 11.9645 25.1699 12.09 25.1712H26.91C27.0356 25.1699 27.1592 25.2023 27.2678 25.2652C27.3765 25.3281 27.4662 25.4192 27.5275 25.5287C27.5919 25.6369 27.6259 25.7604 27.6259 25.8862C27.6259 26.0121 27.5919 26.1356 27.5275 26.2437C26.712 27.6505 25.5412 28.8182 24.1323 29.63C22.7235 30.4418 21.126 30.8691 19.5 30.8691C17.874 30.8691 16.2765 30.4418 14.8677 29.63C13.4588 28.8182 12.288 27.6505 11.4725 26.2437C11.4081 26.1356 11.3741 26.0121 11.3741 25.8862C11.3741 25.7604 11.4081 25.6369 11.4725 25.5287ZM26.8125 17.875C26.1697 17.875 25.5414 17.6844 25.0069 17.3273C24.4724 16.9702 24.0559 16.4626 23.8099 15.8687C23.5639 15.2749 23.4996 14.6214 23.625 13.991C23.7504 13.3605 24.0599 12.7814 24.5144 12.3269C24.9689 11.8724 25.548 11.5628 26.1785 11.4374C26.8089 11.312 27.4624 11.3764 28.0562 11.6224C28.6501 11.8684 29.1577 12.2849 29.5148 12.8194C29.8719 13.3539 30.0625 13.9822 30.0625 14.625C30.0625 15.487 29.7201 16.3136 29.1106 16.9231C28.5011 17.5326 27.6745 17.875 26.8125 17.875Z" fill="#00363D"/>
</svg>
