<svg width="34" height="34" viewBox="0 0 34 34" fill="none" xmlns="http://www.w3.org/2000/svg">
<path d="M16.5851 3.24907C16.3195 2.98337 15.9592 2.83406 15.5835 2.83398H8.50016C8.12447 2.83406 7.76419 2.98337 7.49858 3.24907L3.24858 7.49907C2.98288 7.76468 2.83358 8.12496 2.8335 8.50065V15.584C2.8335 15.9608 2.98225 16.3207 3.24858 16.5856L17.4152 30.7522C17.5465 30.8842 17.7026 30.989 17.8745 31.0605C18.0463 31.132 18.2307 31.1688 18.4168 31.1688C18.603 31.1688 18.7873 31.132 18.9592 31.0605C19.1311 30.989 19.2872 30.8842 19.4184 30.7522L30.7517 19.4189C31.0173 19.1532 31.1665 18.793 31.1665 18.4173C31.1665 18.0417 31.0173 17.6814 30.7517 17.4157L16.5851 3.24907ZM18.4168 27.7475L5.66683 14.9975V9.08715L9.08666 5.66732H14.997L27.747 18.4173L18.4168 27.7475Z" fill="black"/>
<path d="M11.8332 14.1665C13.1219 14.1665 14.1665 13.1219 14.1665 11.8332C14.1665 10.5446 13.1219 9.5 11.8332 9.5C10.5446 9.5 9.5 10.5446 9.5 11.8332C9.5 13.1219 10.5446 14.1665 11.8332 14.1665Z" fill="black"/>
</svg>
