<svg width="34" height="40" viewBox="0 0 34 40" fill="none" xmlns="http://www.w3.org/2000/svg">
<path d="M1.53125 0C0.682937 0 0 0.682937 0 1.53125V9.1875H33.6875V1.53125C33.6875 0.682937 33.0046 0 32.1562 0H1.53125ZM4.59375 3.0625C4.99986 3.0625 5.38934 3.22383 5.67651 3.51099C5.96367 3.79816 6.125 4.18764 6.125 4.59375C6.125 4.99986 5.96367 5.38934 5.67651 5.67651C5.38934 5.96367 4.99986 6.125 4.59375 6.125C4.18764 6.125 3.79816 5.96367 3.51099 5.67651C3.22383 5.38934 3.0625 4.99986 3.0625 4.59375C3.0625 4.18764 3.22383 3.79816 3.51099 3.51099C3.79816 3.22383 4.18764 3.0625 4.59375 3.0625ZM10.7188 3.0625C11.1249 3.0625 11.5143 3.22383 11.8015 3.51099C12.0887 3.79816 12.25 4.18764 12.25 4.59375C12.25 4.99986 12.0887 5.38934 11.8015 5.67651C11.5143 5.96367 11.1249 6.125 10.7188 6.125C10.3126 6.125 9.92316 5.96367 9.63599 5.67651C9.34883 5.38934 9.1875 4.99986 9.1875 4.59375C9.1875 4.18764 9.34883 3.79816 9.63599 3.51099C9.92316 3.22383 10.3126 3.0625 10.7188 3.0625ZM22.9688 3.0625H29.0938C29.4999 3.0625 29.8893 3.22383 30.1765 3.51099C30.4637 3.79816 30.625 4.18764 30.625 4.59375C30.625 4.99986 30.4637 5.38934 30.1765 5.67651C29.8893 5.96367 29.4999 6.125 29.0938 6.125H22.9688C22.5626 6.125 22.1732 5.96367 21.886 5.67651C21.5988 5.38934 21.4375 4.99986 21.4375 4.59375C21.4375 4.18764 21.5988 3.79816 21.886 3.51099C22.1732 3.22383 22.5626 3.0625 22.9688 3.0625ZM0 12.25V38.2812C0 39.1296 0.682937 39.8125 1.53125 39.8125H32.1562C33.0046 39.8125 33.6875 39.1296 33.6875 38.2812V12.25H0ZM16.8438 15.3125C19.6865 15.3125 22.4129 16.4418 24.423 18.452C26.4332 20.4621 27.5625 23.1885 27.5625 26.0312C27.5625 28.874 26.4332 31.6004 24.423 33.6105C22.4129 35.6207 19.6865 36.75 16.8438 36.75C14.001 36.75 11.2746 35.6207 9.26445 33.6105C7.25429 31.6004 6.125 28.874 6.125 26.0312C6.125 23.1885 7.25429 20.4621 9.26445 18.452C11.2746 16.4418 14.001 15.3125 16.8438 15.3125ZM13.0156 23.7344C11.4844 23.7344 9.95312 24.5 9.1875 26.0312C9.1875 27.0367 9.38553 28.0323 9.7703 28.9612C10.1551 29.8901 10.719 30.7341 11.43 31.445C12.8658 32.8809 14.8132 33.6875 16.8438 33.6875C17.8492 33.6875 18.8448 33.4895 19.7737 33.1047C20.7026 32.7199 21.5466 32.156 22.2575 31.445C22.9685 30.7341 23.5324 29.8901 23.9172 28.9612C24.302 28.0323 24.5 27.0367 24.5 26.0312C22.9688 29.0938 18.375 29.0938 16.8438 26.0312C16.0781 24.5 14.5469 23.7344 13.0156 23.7344Z" fill="#00363D"/>
</svg>
